<svg width="891" height="537" viewBox="0 0 891 537" fill="none" xmlns="http://www.w3.org/2000/svg">
<g clip-path="url(#clip0_1271_66)">
<path d="M126.255 73.9786H124.223V207.633H126.255V73.9786Z" fill="white"/>
<path d="M194.327 73.9786H192.295V207.633H194.327V73.9786Z" fill="white"/>
<path d="M879.975 268.224C904.393 378.756 889.508 487.464 777.249 524.529C664.989 561.594 528.972 506.936 473.447 402.448C417.921 297.96 527.534 242.505 576.173 146.144C674.943 -49.5367 804.143 -75.031 879.975 268.224Z" fill="white"/>
<path d="M786.895 454.788C790.562 454.788 793.535 452.445 793.535 449.554C793.535 446.663 790.562 444.32 786.895 444.32C783.228 444.32 780.255 446.663 780.255 449.554C780.255 452.445 783.228 454.788 786.895 454.788Z" fill="#FF6584"/>
<path d="M820.442 476.832H818.41V536.424H820.442V476.832Z" fill="#3F3D56"/>
<path d="M819.426 485.259C825.331 485.259 830.117 481.486 830.117 476.832C830.117 472.178 825.331 468.405 819.426 468.405C813.522 468.405 808.735 472.178 808.735 476.832C808.735 481.486 813.522 485.259 819.426 485.259Z" fill="#3F3D56"/>
<path d="M819.426 513.56C819.426 513.56 817.899 487.667 786.589 490.677L819.426 513.56Z" fill="#3F3D56"/>
<path d="M345.173 73.1777H38.3398V74.7794H345.173V73.1777Z" fill="white"/>
<path d="M345.173 147.657H38.3398V149.259H345.173V147.657Z" fill="white"/>
<path d="M345.173 206.92H38.3398V208.522H345.173V206.92Z" fill="white"/>
<path d="M332.473 279.397H59.168V280.998H332.473V279.397Z" fill="#3F3D56"/>
<path d="M43.42 293.411C40.0039 293.411 36.6645 292.613 33.8242 291.117C30.9838 289.621 28.77 287.495 27.4627 285.007C26.1554 282.519 25.8134 279.782 26.4798 277.141C27.1463 274.5 28.7913 272.074 31.2068 270.17C33.6224 268.266 36.7 266.969 40.0504 266.444C43.4009 265.919 46.8737 266.188 50.0298 267.219C53.1858 268.249 55.8833 269.994 57.7812 272.233C59.6791 274.472 60.6921 277.104 60.6921 279.797C60.687 283.407 58.8656 286.867 55.6276 289.419C52.3895 291.972 47.9993 293.407 43.42 293.411ZM43.42 267.784C40.4058 267.784 37.4593 268.489 34.9531 269.809C32.4469 271.129 30.4935 273.005 29.34 275.2C28.1866 277.395 27.8848 279.81 28.4728 282.141C29.0608 284.471 30.5123 286.611 32.6437 288.291C34.775 289.971 37.4905 291.115 40.4468 291.579C43.4031 292.042 46.4674 291.805 49.2521 290.895C52.0369 289.986 54.4171 288.446 56.0917 286.471C57.7663 284.495 58.6601 282.173 58.6601 279.797C58.6556 276.612 57.0485 273.559 54.1914 271.307C51.3343 269.055 47.4606 267.788 43.42 267.784Z" fill="#3F3D56"/>
<path d="M126.284 207.721H124.252V279.797H126.284V207.721Z" fill="#3F3D56"/>
<path d="M194.357 148.458H192.325V279.797H194.357V148.458Z" fill="#3F3D56"/>
<path d="M263.445 73.9786H261.413V279.797H263.445V73.9786Z" fill="#3F3D56"/>
<path d="M125.238 291.48C133.424 291.48 140.06 286.25 140.06 279.797C140.06 273.345 133.424 268.114 125.238 268.114C117.052 268.114 110.417 273.345 110.417 279.797C110.417 286.25 117.052 291.48 125.238 291.48Z" fill="white"/>
<path d="M193.789 291.48C201.975 291.48 208.611 286.25 208.611 279.797C208.611 273.345 201.975 268.114 193.789 268.114C185.603 268.114 178.967 273.345 178.967 279.797C178.967 286.25 185.603 291.48 193.789 291.48Z" fill="white"/>
<path d="M262.339 291.48C270.525 291.48 277.161 286.25 277.161 279.797C277.161 273.345 270.525 268.114 262.339 268.114C254.153 268.114 247.518 273.345 247.518 279.797C247.518 286.25 254.153 291.48 262.339 291.48Z" fill="#EDAE48"/>
<path d="M262.877 85.1904C270.733 85.1904 277.101 80.1707 277.101 73.9785C277.101 67.7863 270.733 62.7666 262.877 62.7666C255.021 62.7666 248.653 67.7863 248.653 73.9785C248.653 80.1707 255.021 85.1904 262.877 85.1904Z" fill="#EDAE48"/>
<path d="M262.508 159.582C270.364 159.582 276.732 154.562 276.732 148.37C276.732 142.178 270.364 137.158 262.508 137.158C254.653 137.158 248.284 142.178 248.284 148.37C248.284 154.562 254.653 159.582 262.508 159.582Z" fill="#EDAE48"/>
<path d="M193.789 159.67C201.645 159.67 208.013 154.65 208.013 148.458C208.013 142.265 201.645 137.246 193.789 137.246C185.933 137.246 179.565 142.265 179.565 148.458C179.565 154.65 185.933 159.67 193.789 159.67Z" fill="white"/>
<path d="M193.42 218.845C201.276 218.845 207.644 213.825 207.644 207.633C207.644 201.441 201.276 196.421 193.42 196.421C185.564 196.421 179.196 201.441 179.196 207.633C179.196 213.825 185.564 218.845 193.42 218.845Z" fill="#EDAE48"/>
<path d="M125.717 218.933C133.572 218.933 139.941 213.913 139.941 207.721C139.941 201.529 133.572 196.509 125.717 196.509C117.861 196.509 111.493 201.529 111.493 207.721C111.493 213.913 117.861 218.933 125.717 218.933Z" fill="white"/>
<path d="M13.9561 84.3895C21.2507 84.3895 27.1642 79.7283 27.1642 73.9785C27.1642 68.2286 21.2507 63.5674 13.9561 63.5674C6.66149 63.5674 0.748047 68.2286 0.748047 73.9785C0.748047 79.7283 6.66149 84.3895 13.9561 84.3895Z" fill="#EDAE48"/>
<path d="M13.9561 158.068C21.2507 158.068 27.1642 153.407 27.1642 147.657C27.1642 141.907 21.2507 137.246 13.9561 137.246C6.66149 137.246 0.748047 141.907 0.748047 147.657C0.748047 153.407 6.66149 158.068 13.9561 158.068Z" fill="white"/>
<path d="M13.9561 218.132C21.2507 218.132 27.1642 213.471 27.1642 207.721C27.1642 201.971 21.2507 197.31 13.9561 197.31C6.66149 197.31 0.748047 201.971 0.748047 207.721C0.748047 213.471 6.66149 218.132 13.9561 218.132Z" fill="white"/>
<path d="M648.514 80.4101C648.514 80.4101 667.72 99.8069 665.319 113.527C662.919 127.246 704.932 94.6029 704.932 94.6029C704.932 94.6029 690.528 70.9483 698.33 59.5941C706.133 48.2399 648.514 80.4101 648.514 80.4101Z" fill="#FFB9B9"/>
<path d="M715.736 473.076C715.736 473.076 740.944 494.839 736.742 499.569C732.541 504.3 658.718 522.278 650.315 521.332C641.912 520.386 637.711 515.655 640.712 514.235C643.713 512.816 662.919 504.774 662.919 504.774L679.124 490.108C679.124 490.108 691.128 484.904 691.128 482.065C691.128 479.227 715.736 473.076 715.736 473.076Z" fill="#2F2E41"/>
<path d="M673.122 497.204C673.122 497.204 663.519 509.504 661.719 509.977C659.918 510.45 670.721 527.482 670.721 527.482L695.929 521.332L709.734 512.343L706.733 500.042L673.122 497.204Z" fill="#FFB9B9"/>
<path d="M647.314 262.55L635.31 304.656C635.31 304.656 593.897 377.985 622.706 390.758L685.726 485.85L719.337 474.023L662.919 376.566L688.727 264.443L647.314 262.55Z" fill="#D0CDE1"/>
<path opacity="0.1" d="M647.314 262.55L635.31 304.656C635.31 304.656 593.897 377.985 622.706 390.758L685.726 485.85L719.337 474.023L662.919 376.566L688.727 264.443L647.314 262.55Z" fill="black"/>
<path d="M651.515 269.174H645.426C644.951 283.724 645.984 298.28 648.514 312.698C652.716 336.826 663.519 392.178 663.519 392.178C663.519 392.178 662.319 402.586 665.92 405.897C669.521 409.209 670.121 404.951 670.721 412.52C671.321 420.09 677.023 472.718 677.023 472.718C677.023 472.718 680.925 483.484 676.723 485.85C672.522 488.215 664.119 500.989 670.121 502.881C676.123 504.773 717.536 507.139 719.337 505.72C721.137 504.3 719.337 415.359 719.337 415.359C719.337 415.359 718.136 397.382 716.936 396.435C715.735 395.489 710.334 382.716 712.134 379.877C713.935 377.039 712.735 368.523 712.735 367.104C712.735 365.684 707.333 367.104 712.134 360.954C716.936 354.803 717.536 305.602 717.536 305.602C717.536 305.602 743.344 274.378 735.542 266.335L651.515 269.174Z" fill="#D0CDE1"/>
<path d="M665.32 87.5065C687.197 87.5065 704.932 73.527 704.932 56.2824C704.932 39.0378 687.197 25.0583 665.32 25.0583C643.442 25.0583 625.707 39.0378 625.707 56.2824C625.707 73.527 643.442 87.5065 665.32 87.5065Z" fill="#FFB9B9"/>
<path d="M704.932 89.3988C704.932 89.3988 680.925 94.1297 671.321 105.484L662.919 106.903V113.526C662.919 113.526 647.314 152.793 650.915 169.824C654.516 186.856 650.915 219.972 644.913 228.961C638.911 237.95 637.111 239.842 640.112 243.627C643.113 247.411 647.314 260.185 644.313 265.862C641.312 271.539 644.313 277.216 671.922 278.635C699.53 280.055 738.543 280.055 738.543 272.485C738.543 264.916 736.142 243.627 738.543 237.95C740.944 232.273 742.144 228.488 740.944 223.284C739.743 218.08 743.344 159.889 743.344 159.889C743.344 159.889 743.944 101.699 704.932 89.3988Z" fill="#2F2E41"/>
<path d="M648.514 235.584L615.504 274.378C615.504 274.378 580.693 299.451 593.297 310.806C605.901 322.16 638.911 277.689 638.911 277.689L674.923 245.519L648.514 235.584Z" fill="#FFB9B9"/>
<path d="M669.521 512.343C669.521 512.343 668.32 506.193 664.119 506.193C659.918 506.193 631.709 521.332 631.709 521.332C631.709 521.332 592.984 534.463 609.334 535.269C625.59 536.07 711.534 537.89 712.134 535.524C712.734 533.159 713.935 509.832 709.734 509.905C705.532 509.977 671.922 515.181 671.922 515.181L669.521 512.343Z" fill="#2F2E41"/>
<path d="M668.137 40.1512C666.73 40.698 665.179 40.9743 663.61 40.9575C661.991 41.0301 660.058 40.9511 659.197 39.868C658.79 39.1552 658.601 38.3769 658.647 37.596C658.477 36.5932 658.051 35.628 657.394 34.7587C656.738 33.8894 655.864 33.134 654.827 32.5382C653.79 31.9423 652.61 31.5184 651.359 31.292C650.109 31.0656 648.812 31.0414 647.549 31.2209C647.721 32.7846 648.325 34.2998 649.318 35.6603C647.563 36.1295 645.695 36.2734 643.858 36.0807C642.022 35.888 640.266 35.364 638.729 34.5493L638.119 40.922C635.966 41.7331 633.208 41.9023 631.33 40.7414C629.452 39.5806 629.302 36.8562 631.426 35.9984C628.803 35.5672 625.594 34.6408 625.401 32.534C625.225 30.6116 627.814 29.2046 628.291 27.3142C628.68 25.7724 627.608 24.0967 628.366 22.643C629.363 20.7332 632.983 20.243 633.709 18.2588C634.079 17.2483 633.547 16.1674 633.674 15.1205C634.006 12.3793 638.378 11.2412 641.866 11.397C645.354 11.5528 649.161 12.2829 652.124 10.8243C653.561 10.117 654.564 8.98502 655.826 8.09483C657.572 6.91501 659.742 6.19606 662.032 6.03906C664.323 5.88207 666.618 6.29493 668.596 7.2196C669.998 7.90718 671.222 8.86002 672.787 9.27794C675.988 10.1332 679.328 8.51497 682.675 8.14194C683.899 7.97667 685.155 8.03231 686.348 8.3047C687.541 8.57708 688.64 9.05911 689.563 9.71454C690.458 10.3932 691.044 11.2861 691.23 12.2544C691.415 13.2226 691.19 14.2121 690.589 15.069C692.552 14.8076 694.633 14.5547 696.484 15.1345C698.335 15.7143 699.749 17.461 698.892 18.8783C698.574 19.2499 698.323 19.6545 698.146 20.0805C697.972 20.905 698.979 21.61 699.996 21.8464C701.014 22.0829 702.117 22.0387 703.113 22.3259C707.227 23.5127 706.24 28.6969 709.478 31.0228C710.589 31.6596 711.763 32.2254 712.988 32.7149C714.596 33.5936 715.773 34.8808 716.321 36.3612C716.869 37.8416 716.756 39.4255 716 40.848C715.351 41.9809 714.263 43.0621 714.394 44.3009C714.578 46.0383 716.94 46.99 718.597 48.1445C720.109 49.2435 721.143 50.6903 721.552 52.2791C721.96 53.8679 721.723 55.5178 720.874 56.9942C719.35 59.4994 716.05 61.3984 715.716 64.164C715.57 65.3662 716.028 66.5664 716.002 67.7738C715.905 68.8899 715.49 69.9745 714.788 70.9467C714.086 71.9189 713.115 72.7537 711.946 73.389C709.596 74.6445 706.947 75.513 704.161 75.9425C702.852 76.1894 701.291 76.5759 700.974 77.6065C700.599 78.8285 702.329 79.9405 702.15 81.1898C702.037 81.7327 701.657 82.2183 701.091 82.5403C698.75 83.9837 695.044 82.7463 693.613 80.6931C692.181 78.6399 692.364 76.1517 692.586 73.8154L693.393 65.3197C693.645 62.6763 693.621 59.5372 690.887 57.9934C687.864 56.2867 683.463 57.6684 680.045 56.5151C676.483 55.3134 675.206 51.7965 675.349 48.745C675.493 45.6935 676.602 42.6372 675.965 39.6248C675.174 35.8919 670.962 33.383 666.708 35.802C670.446 35.4006 671.092 38.7822 668.137 40.1512Z" fill="#EDAE48"/>
<path opacity="0.1" d="M701.331 112.107C701.331 112.107 677.323 119.677 677.323 135.762C677.323 151.847 678.524 173.136 674.322 180.232C670.121 187.329 666.52 189.694 668.921 195.371C671.321 201.048 675.523 200.102 668.921 204.36C662.319 208.618 662.919 201.522 662.319 208.618C661.718 215.714 668.32 216.66 662.319 219.972C656.317 223.284 640.712 236.53 647.314 240.788C653.916 245.046 671.321 258.766 677.323 253.562C683.325 248.358 686.326 235.111 694.729 236.057C703.132 237.003 704.332 237.477 703.131 232.746C701.931 228.015 696.529 228.015 703.732 226.595C710.934 225.176 713.935 228.488 711.534 223.757C709.133 219.026 707.333 217.134 712.134 211.93C716.936 206.726 719.337 205.306 718.736 200.102C718.136 194.898 731.941 148.062 731.941 148.062C731.941 148.062 736.142 108.322 701.331 112.107Z" fill="black"/>
<path opacity="0.1" d="M694.729 111.161C694.729 111.161 670.721 118.73 670.721 134.816C670.721 150.901 671.922 172.19 667.72 179.286C663.519 186.383 659.918 188.748 662.319 194.425C664.719 200.102 668.921 199.156 662.319 203.414C655.717 207.672 656.317 200.575 655.717 207.672C655.116 214.768 661.718 215.714 655.717 219.026C649.715 222.338 634.11 235.584 640.712 239.842C647.314 244.1 664.719 257.819 670.721 252.615C676.723 247.411 679.724 234.165 688.127 235.111C696.529 236.057 697.73 236.53 696.529 231.799C695.329 227.068 689.927 227.068 697.13 225.649C704.332 224.23 707.333 227.542 704.932 222.811C702.531 218.08 700.731 216.187 705.532 210.983C710.334 205.779 712.735 204.36 712.134 199.156C711.534 193.952 725.339 147.116 725.339 147.116C725.339 147.116 729.54 107.376 694.729 111.161Z" fill="black"/>
<path d="M697.73 109.742C697.73 109.742 673.722 117.311 673.722 133.396C673.722 149.481 674.923 170.771 670.721 177.867C666.52 184.963 662.919 187.329 665.32 193.006C667.72 198.683 671.922 197.737 665.32 201.995C658.718 206.252 659.318 199.156 658.717 206.252C658.117 213.349 664.719 214.295 658.717 217.607C652.716 220.918 637.111 234.165 643.713 238.423C650.315 242.68 667.72 256.4 673.722 251.196C679.724 245.992 682.725 232.746 691.128 233.692C699.53 234.638 700.731 235.111 699.53 230.38C698.33 225.649 692.928 225.649 700.131 224.23C707.333 222.811 710.334 226.122 707.933 221.391C705.532 216.66 703.732 214.768 708.533 209.564C713.335 204.36 715.736 202.941 715.135 197.737C714.535 192.533 728.34 145.697 728.34 145.697C728.34 145.697 732.541 105.957 697.73 109.742Z" fill="#2F2E41"/>
<path d="M829.807 536.07H281.165" stroke="#3F3D56" stroke-width="2" stroke-miterlimit="10"/>
<path d="M373.621 383.107H302.501V388.349H373.621V383.107Z" fill="#3F3D56"/>
<path d="M373.621 394.901H302.501V400.143H373.621V394.901Z" fill="#3F3D56"/>
<path d="M373.621 406.696H302.501V411.938H373.621V406.696Z" fill="#3F3D56"/>
<path d="M413.787 536.445C396.639 536.414 379.798 532.853 364.934 526.112C350.069 519.372 337.697 509.688 329.043 498.018L328.529 497.324L413.024 458.926V381.934L414.042 381.936C440.014 381.99 464.896 390.166 483.225 404.67C501.553 419.174 511.829 438.819 511.795 459.291C511.761 479.762 501.421 499.386 483.044 513.853C464.668 528.319 439.759 536.445 413.787 536.445ZM331.317 497.905C339.882 509.242 352.06 518.616 366.641 525.097C381.223 531.577 397.7 534.94 414.44 534.849C431.179 534.759 447.597 531.22 462.064 524.583C476.532 517.946 488.546 508.442 496.914 497.014C505.282 485.586 509.712 472.632 509.766 459.437C509.82 446.243 505.495 433.266 497.22 421.796C488.946 410.326 477.009 400.762 462.596 394.051C448.183 387.341 431.794 383.719 415.056 383.544V459.852L414.547 460.082L331.317 497.905Z" fill="white"/>
<path d="M413.787 488.258C434.154 488.258 450.665 475.243 450.665 459.189C450.665 443.135 434.154 430.12 413.787 430.12C393.42 430.12 376.909 443.135 376.909 459.189C376.909 475.243 393.42 488.258 413.787 488.258Z" fill="#EDAE48"/>
<path d="M413.787 473.688C423.946 473.688 432.181 467.197 432.181 459.189C432.181 451.182 423.946 444.691 413.787 444.691C403.629 444.691 395.394 451.182 395.394 459.189C395.394 467.197 403.629 473.688 413.787 473.688Z" fill="#2F2E41"/>
<path d="M356.997 64.2804H332.613V83.5008H356.997V64.2804Z" fill="#EDAE48"/>
<path d="M356.997 137.959H332.613V157.179H356.997V137.959Z" fill="#EDAE48"/>
<path d="M356.997 198.023H332.613V217.243H356.997V198.023Z" fill="#EDAE48"/>
<path d="M358.013 290.12H331.597V269.298H358.013V290.12ZM333.629 288.519H355.981V270.9H333.629V288.519Z" fill="#3F3D56"/>
</g>
<defs>
<clipPath id="clip0_1271_66">
<rect width="889.282" height="536.57" fill="white" transform="translate(0.748047 0.300171)"/>
</clipPath>
</defs>
</svg>
